<?xml version="1.0" encoding="UTF-8"?>
<!DOCTYPE svg PUBLIC "-//W3C//DTD SVG 1.1//EN" "http://www.w3.org/Graphics/SVG/1.1/DTD/svg11.dtd">
<svg xmlns="http://www.w3.org/2000/svg" version="1.1" width="500px" height="500px" style="shape-rendering:geometricPrecision; text-rendering:geometricPrecision; image-rendering:optimizeQuality; fill-rule:evenodd; clip-rule:evenodd" xmlns:xlink="http://www.w3.org/1999/xlink">
<g><path style="opacity:1" fill="#2e0057" d="M -0.5,-0.5 C 105.833,-0.5 212.167,-0.5 318.5,-0.5C 215.387,35.8044 109.053,53.1377 -0.5,51.5C -0.5,34.1667 -0.5,16.8333 -0.5,-0.5 Z"/></g>
<g><path style="opacity:1" fill="#3a006d" d="M 318.5,-0.5 C 378.833,-0.5 439.167,-0.5 499.5,-0.5C 499.5,0.5 499.5,1.5 499.5,2.5C 457.403,28.7114 412.736,49.878 365.5,66C 345.633,72.6785 325.633,78.8451 305.5,84.5C 293.595,82.2325 281.761,79.5658 270,76.5C 269.055,76.9054 268.388,77.572 268,78.5C 266.671,84.1481 265.504,89.8147 264.5,95.5C 221.532,104.281 178.198,110.781 134.5,115C 104.181,116.491 73.8478,116.824 43.5,116C 28.7214,114.96 14.0547,113.127 -0.5,110.5C -0.5,90.8333 -0.5,71.1667 -0.5,51.5C 109.053,53.1377 215.387,35.8044 318.5,-0.5 Z"/></g>
<g><path style="opacity:1" fill="#49008a" d="M 499.5,2.5 C 499.5,15.1667 499.5,27.8333 499.5,40.5C 467.195,58.6526 433.862,74.6526 399.5,88.5C 387.84,92.4978 376.174,96.4978 364.5,100.5C 342.288,107.636 319.954,114.302 297.5,120.5C 300.55,108.584 303.216,96.5844 305.5,84.5C 325.633,78.8451 345.633,72.6785 365.5,66C 412.736,49.878 457.403,28.7114 499.5,2.5 Z"/></g>
<g><path style="opacity:1" fill="#0e0024" d="M 499.5,40.5 C 499.5,135.5 499.5,230.5 499.5,325.5C 412.291,319.952 325.958,326.285 240.5,344.5C 241.092,341.873 241.425,339.206 241.5,336.5C 256.167,279.833 270.833,223.167 285.5,166.5C 319.818,184.542 351.318,180.542 380,154.5C 396.417,135.511 402.917,113.511 399.5,88.5C 433.862,74.6526 467.195,58.6526 499.5,40.5 Z"/></g>
<g><path style="opacity:1" fill="#eccffd" d="M 305.5,84.5 C 303.216,96.5844 300.55,108.584 297.5,120.5C 296.737,123.141 296.57,125.808 297,128.5C 312.634,143.747 329.801,145.581 348.5,134C 359.319,125.527 364.652,114.361 364.5,100.5C 376.174,96.4978 387.84,92.4978 399.5,88.5C 402.917,113.511 396.417,135.511 380,154.5C 351.318,180.542 319.818,184.542 285.5,166.5C 274.774,158.605 265.94,148.938 259,137.5C 257.864,134.904 257.031,132.237 256.5,129.5C 258.542,117.998 261.209,106.665 264.5,95.5C 265.504,89.8147 266.671,84.1481 268,78.5C 268.388,77.572 269.055,76.9054 270,76.5C 281.761,79.5658 293.595,82.2325 305.5,84.5 Z"/></g>
<g><path style="opacity:1" fill="#49008a" d="M 264.5,95.5 C 261.209,106.665 258.542,117.998 256.5,129.5C 256.167,129.5 255.833,129.5 255.5,129.5C 178.732,147.602 101.065,153.102 22.5,146C 14.7101,145.34 7.04347,144.173 -0.5,142.5C -0.5,131.833 -0.5,121.167 -0.5,110.5C 14.0547,113.127 28.7214,114.96 43.5,116C 73.8478,116.824 104.181,116.491 134.5,115C 178.198,110.781 221.532,104.281 264.5,95.5 Z"/></g>
<g><path style="opacity:1" fill="#0f0125" d="M 364.5,100.5 C 364.652,114.361 359.319,125.527 348.5,134C 329.801,145.581 312.634,143.747 297,128.5C 296.57,125.808 296.737,123.141 297.5,120.5C 319.954,114.302 342.288,107.636 364.5,100.5 Z"/></g>
<g><path style="opacity:1" fill="#0e0024" d="M 255.5,129.5 C 243.612,178.054 231.279,226.387 218.5,274.5C 195.573,254.481 169.573,249.314 140.5,259C 103.928,275.934 88.4283,304.434 94,344.5C 95.7375,354.305 99.4042,363.305 105,371.5C 108.073,375.061 110.906,378.728 113.5,382.5C 79.0727,395.706 47.406,413.54 18.5,436C 11.9365,442.395 5.60321,448.895 -0.5,455.5C -0.5,351.167 -0.5,246.833 -0.5,142.5C 7.04347,144.173 14.7101,145.34 22.5,146C 101.065,153.102 178.732,147.602 255.5,129.5 Z"/></g>
<g><path style="opacity:1" fill="#d19afb" d="M 255.5,129.5 C 255.833,129.5 256.167,129.5 256.5,129.5C 257.031,132.237 257.864,134.904 259,137.5C 265.94,148.938 274.774,158.605 285.5,166.5C 270.833,223.167 256.167,279.833 241.5,336.5C 243.696,312.081 236.03,291.414 218.5,274.5C 231.279,226.387 243.612,178.054 255.5,129.5 Z"/></g>
<g><path style="opacity:1" fill="#eccffd" d="M 218.5,274.5 C 236.03,291.414 243.696,312.081 241.5,336.5C 241.425,339.206 241.092,341.873 240.5,344.5C 238.587,351.67 236.087,358.67 233,365.5C 229.312,371.552 225.146,377.218 220.5,382.5C 200.177,400.501 176.51,407.168 149.5,402.5C 136.034,398.435 124.034,391.768 113.5,382.5C 110.906,378.728 108.073,375.061 105,371.5C 99.4042,363.305 95.7375,354.305 94,344.5C 88.4283,304.434 103.928,275.934 140.5,259C 169.573,249.314 195.573,254.481 218.5,274.5 Z"/></g>
<g><path style="opacity:1" fill="#0f0124" d="M 195.5,355.5 C 182.716,358.761 170.05,362.428 157.5,366.5C 142.941,362.434 133.441,353.1 129,338.5C 125.781,314.419 135.615,298.586 158.5,291C 182.257,288.115 197.757,297.948 205,320.5C 207.786,333.95 204.619,345.617 195.5,355.5 Z"/></g>
<g><path style="opacity:1" fill="#7e00a3" d="M 499.5,325.5 C 499.5,336.5 499.5,347.5 499.5,358.5C 405.206,351.709 312.206,359.709 220.5,382.5C 225.146,377.218 229.312,371.552 233,365.5C 236.087,358.67 238.587,351.67 240.5,344.5C 325.958,326.285 412.291,319.952 499.5,325.5 Z"/></g>
<g><path style="opacity:1" fill="#670086" d="M 499.5,358.5 C 499.5,381.833 499.5,405.167 499.5,428.5C 402.929,429.06 308.596,443.56 216.5,472C 193.053,479.531 170.386,488.697 148.5,499.5C 103.833,499.5 59.1667,499.5 14.5,499.5C 14.8092,491.211 17.6425,483.878 23,477.5C 31.4179,468.205 40.5846,459.705 50.5,452C 81.3612,431.236 114.361,414.736 149.5,402.5C 176.51,407.168 200.177,400.501 220.5,382.5C 312.206,359.709 405.206,351.709 499.5,358.5 Z"/></g>
<g><path style="opacity:1" fill="#7e10a1" d="M 195.5,355.5 C 184.846,366.5 172.179,370.166 157.5,366.5C 170.05,362.428 182.716,358.761 195.5,355.5 Z"/></g>
<g><path style="opacity:1" fill="#7e00a3" d="M 113.5,382.5 C 124.034,391.768 136.034,398.435 149.5,402.5C 114.361,414.736 81.3612,431.236 50.5,452C 40.5846,459.705 31.4179,468.205 23,477.5C 17.6425,483.878 14.8092,491.211 14.5,499.5C 9.5,499.5 4.5,499.5 -0.5,499.5C -0.5,484.833 -0.5,470.167 -0.5,455.5C 5.60321,448.895 11.9365,442.395 18.5,436C 47.406,413.54 79.0727,395.706 113.5,382.5 Z"/></g>
<g><path style="opacity:1" fill="#54006d" d="M 499.5,428.5 C 499.5,452.167 499.5,475.833 499.5,499.5C 382.5,499.5 265.5,499.5 148.5,499.5C 170.386,488.697 193.053,479.531 216.5,472C 308.596,443.56 402.929,429.06 499.5,428.5 Z"/></g>
</svg>
