<?xml version="1.0" standalone="no"?>
<!DOCTYPE svg PUBLIC "-//W3C//DTD SVG 20010904//EN"
 "http://www.w3.org/TR/2001/REC-SVG-20010904/DTD/svg10.dtd">
<svg version="1.0" xmlns="http://www.w3.org/2000/svg"
 width="560.000000pt" height="48.000000pt" viewBox="0 0 560.000000 48.000000"
 preserveAspectRatio="xMidYMid meet">

<g transform="translate(0.000000,48.000000) scale(0.100000,-0.100000)"
fill="#000000" stroke="none">
<path d="M230 461 c-16 -30 -12 -249 5 -307 15 -51 59 -106 104 -128 100 -51
224 -7 276 97 23 47 25 61 25 192 0 96 -4 145 -12 153 -19 19 -66 15 -78 -7
-5 -11 -10 -80 -10 -153 0 -109 -3 -138 -17 -158 -27 -40 -45 -49 -91 -50 -37
0 -50 6 -78 34 l-34 34 0 137 c0 75 -5 145 -10 156 -7 12 -21 19 -40 19 -19 0
-33 -7 -40 -19z"/>
<path d="M1042 468 c-16 -16 -15 -43 1 -56 7 -6 40 -12 72 -14 l60 -3 5 -184
c4 -157 7 -185 22 -194 12 -8 24 -8 42 1 l26 11 2 183 3 183 62 3 c72 3 92 19
75 57 l-12 25 -173 0 c-121 0 -177 -4 -185 -12z"/>
<path d="M1888 463 c-21 -25 -168 -383 -168 -409 0 -57 71 -56 94 1 l15 35
100 0 101 0 14 -34 c17 -41 30 -50 61 -42 46 12 40 41 -46 246 -44 107 -86
201 -91 208 -15 18 -63 15 -80 -5z m75 -197 c15 -40 27 -76 27 -79 0 -4 -27
-7 -60 -7 -33 0 -60 4 -60 9 0 17 52 151 59 151 3 0 18 -33 34 -74z"/>
<path d="M2550 465 c-8 -10 -11 -58 -8 -168 3 -149 4 -155 31 -196 70 -105
206 -128 301 -49 66 55 80 95 84 249 4 153 -2 179 -46 179 -48 0 -52 -13 -52
-157 0 -143 -9 -177 -52 -207 -32 -23 -100 -20 -131 4 -36 29 -47 76 -47 212
0 64 -3 123 -6 132 -8 20 -57 21 -74 1z"/>
<path d="M3400 461 c-6 -12 -10 -99 -10 -213 0 -159 3 -198 16 -216 16 -23 39
-28 64 -12 12 7 16 40 20 152 l5 142 54 -66 c78 -97 81 -97 156 -5 l50 61 5
-132 c4 -107 8 -135 22 -149 14 -13 23 -15 45 -7 l28 9 3 214 c3 229 0 241
-47 241 -21 0 -42 -18 -101 -90 -41 -49 -78 -90 -81 -90 -3 0 -40 41 -83 90
-64 75 -83 90 -106 90 -19 0 -33 -7 -40 -19z"/>
<path d="M4320 461 c-6 -12 -10 -101 -10 -219 0 -180 2 -200 18 -215 23 -21
46 -22 66 -1 14 13 16 48 16 223 0 148 -3 210 -12 219 -19 19 -66 15 -78 -7z"/>
<path d="M4837 473 c-4 -3 -7 -18 -7 -31 0 -23 30 -64 122 -168 19 -21 19 -22
-51 -107 -72 -87 -86 -122 -56 -147 27 -22 59 -2 119 75 32 41 62 75 65 75 3
0 35 -36 70 -80 65 -80 91 -96 119 -68 25 25 11 58 -58 141 l-70 85 70 87 c39
47 70 94 70 103 0 30 -16 44 -46 40 -21 -2 -43 -21 -87 -73 -32 -38 -62 -70
-66 -70 -4 0 -36 33 -70 73 -50 57 -69 72 -90 72 -15 0 -31 -3 -34 -7z"/>
</g>
</svg>
